Coordinates
version=1
nRows=38
nColumns=12
inDegrees=yes

Units are S.I. units (second, meters, Newtons, ...)
Angles are in degrees

endheader
time	SC_y	SC_z	SC_x	AC_y	AC_z	AC_x	GH_y	GH_z	GH_yy	EL_x	PS_y
       0.0              -42.56          26.96          22.51          61.34         -4.894         -5.122          112.4         -16.42         -99.76          73.52          63.96
   0.03764              -42.56          26.96          22.51          61.33         -4.895         -5.122          112.4          -16.4         -99.75          73.51          63.97
   0.07528              -42.56          26.96          22.52          61.33         -4.896         -5.123          112.3         -16.39         -99.73          73.51          63.97
    0.1129              -42.56          26.95          22.52          61.32         -4.896         -5.123          112.3         -16.37         -99.72           73.5          63.98
    0.1506              -42.57          26.95          22.53          61.32         -4.897         -5.124          112.3         -16.35         -99.71          73.49          63.98
    0.1882              -42.57          26.95          22.53          61.31         -4.898         -5.124          112.3         -16.34         -99.69          73.48          63.99
    0.2259              -42.57          26.95          22.54          61.31         -4.899         -5.125          112.2         -16.32         -99.67          73.47          63.99
    0.2635              -42.57          26.94          22.55           61.3           -4.9         -5.126          112.2          -16.3         -99.66          73.45           64.0
    0.3011              -42.58          26.94          22.55          61.29         -4.901         -5.127          112.2         -16.27         -99.64          73.44          64.01
    0.3388              -42.58          26.94          22.56          61.29         -4.902         -5.128          112.1         -16.25         -99.62          73.43          64.01
    0.3764              -42.58          26.93          22.57          61.28         -4.904         -5.128          112.1         -16.22          -99.6          73.41          64.02
    0.4141              -42.59          26.93          22.58          61.27         -4.905         -5.129          112.0          -16.2         -99.57           73.4          64.03
    0.4517              -42.59          26.93          22.59          61.26         -4.906         -5.131          112.0         -16.17         -99.55          73.38          64.04
    0.4894              -42.59          26.92           22.6          61.25         -4.908         -5.132          112.0         -16.13         -99.52          73.37          64.05
     0.527               -42.6          26.92          22.61          61.24          -4.91         -5.133          111.9          -16.1         -99.49          73.35          64.06
    0.5646               -42.6          26.91          22.62          61.23         -4.911         -5.134          111.8         -16.06         -99.46          73.33          64.07
    0.6023              -42.61          26.91          22.63          61.22         -4.913         -5.136          111.8         -16.02         -99.43           73.3          64.08
    0.6399              -42.61           26.9          22.65          61.21         -4.915         -5.137          111.7         -15.98         -99.39          73.28          64.09
    0.6776              -42.62          26.89          22.66          61.19         -4.918         -5.139          111.6         -15.93         -99.35          73.25          64.11
    0.7152              -42.63          26.88          22.68          61.18          -4.92         -5.141          111.6         -15.87          -99.3          73.22          64.12
    0.7528              -42.63          26.88           22.7          61.16         -4.923         -5.143          111.5         -15.81         -99.25          73.19          64.14
    0.7905              -42.64          26.87          22.72          61.14         -4.926         -5.146          111.4         -15.75          -99.2          73.15          64.16
    0.8281              -42.65          26.86          22.74          61.12          -4.93         -5.148          111.3         -15.68         -99.14          73.11          64.18
    0.8658              -42.66          26.85          22.77           61.1         -4.934         -5.151          111.1          -15.6         -99.07          73.07           64.2
    0.9034              -42.67          26.83          22.79          61.07         -4.938         -5.154          111.0         -15.51          -99.0          73.02          64.23
    0.9411              -42.68          26.82          22.82          61.04         -4.943         -5.158          110.8         -15.41         -98.92          72.97          64.26
    0.9787               -42.7           26.8          22.86          61.01         -4.948         -5.162          110.7          -15.3         -98.83          72.91          64.29
     1.016              -42.71          26.79           22.9          60.97         -4.954         -5.166          110.5         -15.18         -98.72          72.84          64.32
     1.054              -42.73          26.77          22.94          60.93         -4.961         -5.171          110.3         -15.04         -98.61          72.76          64.36
     1.092              -42.75          26.74          22.99          60.88         -4.968         -5.177          110.0         -14.88         -98.47          72.67          64.41
     1.129              -42.77          26.72          23.05          60.83         -4.977         -5.183          109.8          -14.7         -98.32          72.57          64.46
     1.167               -42.8          26.69          23.11          60.77         -4.987         -5.191          109.4         -14.49         -98.15          72.46          64.52
     1.205              -42.83          26.65          23.19           60.7         -4.998         -5.199          109.1         -14.25         -97.95          72.32          64.59
     1.242              -42.87          26.61          23.28          60.62         -5.012         -5.209          108.6         -13.97         -97.71          72.17          64.67
      1.28              -42.91          26.57          23.38          60.52         -5.028         -5.221          108.1         -13.65         -97.44          71.99          64.77
     1.317              -42.96          26.51           23.5          60.41         -5.046         -5.235          107.6         -13.26         -97.12          71.78          64.88
     1.355              -43.01          26.45          23.64          60.27         -5.068         -5.252          106.9         -12.81         -96.74          71.52          65.01
     1.393              -43.08          26.37          23.82          60.11         -5.095         -5.271          106.0         -12.26         -96.28          71.22          65.17
